<svg xmlns="http://www.w3.org/2000/svg" viewBox="0 0 1600 650"><defs><linearGradient id="g" x1="0" x2="1"><stop stop-color="#030303"/><stop offset=".55" stop-color="#111"/><stop offset="1" stop-color="#d60000"/></linearGradient><filter id="s"><feDropShadow dx="0" dy="18" stdDeviation="22" flood-opacity=".5"/></filter></defs><rect width="1600" height="650" fill="url(#g)"/><circle cx="1280" cy="310" r="230" fill="#fff" opacity=".08"/><circle cx="1350" cy="250" r="170" fill="#d60000" opacity=".65"/><g filter="url(#s)"><rect x="105" y="112" width="250" height="250" rx="62" fill="#fff"/><text x="230" y="285" text-anchor="middle" font-size="96" font-family="Arial Black,Arial" fill="#111">GC</text></g><text x="410" y="245" font-size="92" font-family="Arial Black,Arial" fill="#fff">Gusttavo Corres</text><text x="414" y="330" font-size="45" font-family="Arial" fill="#fff">Trajado da cabeça aos pés</text><text x="414" y="400" font-size="28" font-family="Arial" fill="#ddd">Pix manual • Sob encomenda • 25 a 35 dias</text><g transform="translate(1150 160)"><circle cx="105" cy="80" r="58" fill="#f2c3a5"/><rect x="50" y="135" width="120" height="160" rx="35" fill="#fff"/><rect x="35" y="110" width="145" height="35" rx="18" fill="#111"/><text x="108" y="135" text-anchor="middle" font-size="20" font-family="Arial Black" fill="#d60000">LACOSTE</text><rect x="30" y="270" width="55" height="120" rx="24" fill="#111"/><rect x="130" y="270" width="55" height="120" rx="24" fill="#111"/><rect x="12" y="388" width="80" height="26" rx="12" fill="#fff"/><rect x="120" y="388" width="80" height="26" rx="12" fill="#fff"/></g></svg>